<?xml version="1.0" encoding="utf-8"?>
<!-- Generator: Adobe Illustrator 23.0.3, SVG Export Plug-In . SVG Version: 6.00 Build 0)  -->
<svg version="1.1" id="图层_1" xmlns="http://www.w3.org/2000/svg" xmlns:xlink="http://www.w3.org/1999/xlink" x="0px" y="0px"
	 viewBox="0 0 1600 1600" style="enable-background:new 0 0 1600 1600;" xml:space="preserve">
<style type="text/css">
	.st0{fill:#39A9FE;}
	.st1{fill:#2374E8;}
	.st2{fill:#1A5BAA;}
	.st3{fill:#34353A;}
	.st4{fill:#515259;}
	.st5{fill:#EFAF11;}
	.st6{fill:#136AD1;}
	.st7{fill:#C4C4C4;}
	.st8{fill:#FFFFFF;}
</style>
<polygon class="st0" points="1506,938 579,938 604,874 1517,874 "/>
<g>
	<g>
		<path class="st1" d="M370.62,724.55c-2.67,0-4.83-2.16-4.83-4.83v-14.05c0-4.22-3.43-7.65-7.65-7.65h-79.3
			c-9.54,0-17.31-7.76-17.31-17.31v-1.65c0-9.55,7.76-17.31,17.31-17.31h175.5c4.22,0,7.65-3.43,7.65-7.65
			c0-4.22-3.43-7.65-7.65-7.65h-71.25c-9.54,0-17.31-7.76-17.31-17.31v-10.87c0-2.67,2.16-4.83,4.83-4.83
			c2.67,0,4.83,2.16,4.83,4.83v10.87c0,4.22,3.43,7.65,7.65,7.65h71.25c9.55,0,17.31,7.76,17.31,17.31
			c0,9.54-7.76,17.31-17.31,17.31h-175.5c-4.22,0-7.65,3.43-7.65,7.65v1.65c0,4.22,3.43,7.65,7.65,7.65h79.3
			c9.54,0,17.31,7.76,17.31,17.31v14.05C375.45,722.39,373.29,724.55,370.62,724.55z"/>
	</g>
	<polygon class="st2" points="389.33,731.8 389.33,721.84 383.9,721.84 383.9,711.87 357.33,711.87 357.33,721.84 351.9,721.84 
		351.9,731.8 345.56,731.8 345.56,751.72 395.67,751.72 395.67,731.8 	"/>
	<path class="st2" d="M508.17,974.92H235.48c-34.21,0-64.93-14.96-85.97-38.7c-17.96-20.26-28.86-46.92-28.86-76.13v0
		c0-30.88,12.19-58.91,32.01-79.54c20.9-21.75,50.28-35.29,82.82-35.29h272.69c46.37,0,86.33,27.49,104.45,67.06
		c6.66,14.54,10.38,30.72,10.38,47.77v0c0,30.88-12.19,58.91-32.02,79.55C570.09,961.39,540.71,974.92,508.17,974.92z"/>
	<path class="st1" d="M508.17,754.92h-272.7c-26.61,0-50.94,9.93-69.48,26.29c-21.87,19.29-35.68,47.5-35.68,78.88
		c0,24.59,8.48,47.23,22.67,65.16c19.28,24.36,49.1,40.01,82.5,40.01h272.7c28.99,0,55.29-11.79,74.33-30.84
		c19.04-19.04,30.84-45.34,30.84-74.33c0-17.32-4.21-33.68-11.66-48.1C584.19,778.13,548.84,754.92,508.17,754.92z"/>
	<g>
		<g>
			<circle class="st2" cx="239.39" cy="860.84" r="86.71"/>
			
				<ellipse transform="matrix(0.2318 -0.9728 0.9728 0.2318 -653.4948 894.2173)" class="st3" cx="239.39" cy="860.84" rx="73.38" ry="73.38"/>
			
				<ellipse transform="matrix(0.9256 -0.3786 0.3786 0.9256 -308.0759 154.6997)" class="st4" cx="239.39" cy="860.84" rx="64.64" ry="64.64"/>
		</g>
		<g>
			<circle class="st2" cx="504.25" cy="860.84" r="86.71"/>
			
				<ellipse transform="matrix(0.7071 -0.7071 0.7071 0.7071 -461.0157 608.6972)" class="st3" cx="504.25" cy="860.84" rx="73.38" ry="73.38"/>
			
				<ellipse transform="matrix(0.9475 -0.3197 0.3197 0.9475 -248.7441 206.3839)" class="st4" cx="504.25" cy="860.84" rx="64.64" ry="64.64"/>
			<path class="st5" d="M504.25,796.2c-3.44,0-6.8,0.35-10.09,0.87l-16.74,32.01h18.49l-18.49,36.28h17.09l-18.84,47.8l55.47-64.72
				h-17.09l22.04-39.58l-19.59-0.72l5.8-9.34C516.56,797.14,510.52,796.2,504.25,796.2z"/>
		</g>
	</g>
	<path class="st6" d="M606.37,839.52c-2.79,7.27-6.37,14.14-10.62,20.54c0,0.26,0.04,0.52,0.04,0.78
		c0,50.47-41.06,91.54-91.54,91.54c-33.56,0-62.88-18.21-78.82-45.21H318.21c-15.94,27-45.25,45.21-78.82,45.21
		c-50.47,0-91.54-41.06-91.54-91.54c0-0.26,0.04-0.52,0.04-0.78c-4.25-6.39-7.83-13.27-10.62-20.54
		c-1.39,6.64-2.14,13.52-2.14,20.57c0,55.33,45.01,100.34,100.34,100.34h272.7c55.33,0,100.34-45.01,100.34-100.34
		C608.51,853.04,607.76,846.17,606.37,839.52z"/>
	<path class="st7" d="M279.28,845h-24.8v-24.8c0-1.41-0.51-2.69-1.36-3.68c-1.04-1.22-2.6-2-4.33-2h-18.82
		c-1.57,0-2.99,0.64-4.02,1.67c-1.03,1.03-1.67,2.45-1.67,4.02V845h-24.8c-1.36,0-2.61,0.48-3.58,1.27c-1.28,1.04-2.1,2.63-2.1,4.41
		v18.82c0,1.57,0.64,2.99,1.67,4.02c1.03,1.03,2.45,1.67,4.02,1.67h24.8v24.8c0,1.39,0.5,2.67,1.33,3.66
		c1.04,1.24,2.61,2.03,4.35,2.03h18.82c1.21,0,2.33-0.38,3.25-1.02c1.47-1.03,2.43-2.73,2.43-4.66v-24.8h24.8
		c1.47,0,2.8-0.56,3.81-1.47c1.15-1.04,1.87-2.55,1.87-4.22v-18.82c0-1.91-0.94-3.59-2.38-4.63C281.66,845.39,280.52,845,279.28,845
		z"/>
	<g>
		<path class="st8" d="M236.31,861.6l-11.77-11.77H199.5c-0.25,0-0.43,0.1-0.54,0.19c-0.12,0.1-0.32,0.32-0.32,0.67v18.82
			c0,0.29,0.14,0.49,0.25,0.61c0.11,0.11,0.31,0.25,0.61,0.25h28.05L236.31,861.6z"/>
		<path class="st8" d="M239.09,858.82l10.56-10.57V820.2c0-0.21-0.07-0.4-0.2-0.56c-0.09-0.11-0.31-0.3-0.65-0.3h-18.82
			c-0.3,0-0.5,0.14-0.61,0.25c-0.11,0.12-0.25,0.31-0.25,0.61v28.66L239.09,858.82z"/>
		<path class="st8" d="M279.78,849.99c-0.15-0.11-0.31-0.16-0.5-0.16h-25.65l-11.77,11.77l8.76,8.76h28.66
			c0.22,0,0.41-0.07,0.57-0.22c0.13-0.12,0.28-0.32,0.28-0.64v-18.82C280.14,850.29,279.89,850.07,279.78,849.99z"/>
		<path class="st8" d="M239.09,864.37l-9.96,9.96v25.65c0,0.21,0.07,0.39,0.2,0.55c0.12,0.14,0.33,0.31,0.66,0.31h18.82
			c0.18,0,0.35-0.05,0.5-0.16c0.1-0.07,0.36-0.29,0.36-0.7v-25.05L239.09,864.37z"/>
	</g>
	<g>
		<g>
			<path class="st2" d="M364.78,896.7h-25.9c-0.87,0-1.58-0.71-1.58-1.58v-12.09c0-0.87,0.71-1.58,1.58-1.58h25.9
				c0.87,0,1.58,0.71,1.58,1.58v12.09C366.36,895.99,365.65,896.7,364.78,896.7z"/>
			<path class="st8" d="M361.42,894.24h-19.18c-0.59,0-1.07-0.48-1.07-1.07v-8.2c0-0.59,0.48-1.07,1.07-1.07h19.18
				c0.59,0,1.07,0.48,1.07,1.07v8.2C362.49,893.76,362.01,894.24,361.42,894.24z"/>
		</g>
		<g>
			<path class="st2" d="M404.76,896.7h-25.9c-0.87,0-1.58-0.71-1.58-1.58v-12.09c0-0.87,0.71-1.58,1.58-1.58h25.9
				c0.87,0,1.58,0.71,1.58,1.58v12.09C406.34,895.99,405.64,896.7,404.76,896.7z"/>
			<path class="st8" d="M401.4,894.24h-19.18c-0.59,0-1.07-0.48-1.07-1.07v-8.2c0-0.59,0.48-1.07,1.07-1.07h19.18
				c0.59,0,1.07,0.48,1.07,1.07v8.2C402.47,893.76,401.99,894.24,401.4,894.24z"/>
		</g>
	</g>
</g>
<g>
	<rect x="777.75" y="733.17" class="st0" width="26.9" height="109.97"/>
	<path class="st0" d="M1214.49,768.82c0-5.46-0.99-10.51-2.97-15.15c-1.98-4.64-4.98-8.66-8.98-12.07c-4-3.4-8.98-6.08-14.93-8.02
		c-5.95-1.95-12.89-2.92-20.82-2.92c-6.73,0.07-13.17,0.75-19.3,2.02c-6.14,1.27-11.93,3.11-17.4,5.5v20.15
		c6.31-2.42,12.17-4.24,17.58-5.45c5.41-1.21,10.81-1.82,16.22-1.82c4.43,0,8.18,0.55,11.27,1.65c3.08,1.1,5.58,2.57,7.49,4.43
		c1.92,1.85,3.3,3.97,4.17,6.36c0.86,2.38,1.3,4.86,1.3,7.43v4.43c-3.01-0.83-6.5-1.55-10.48-2.15c-3.98-0.61-8.34-0.91-13.07-0.91
		c-6.46,0-12.35,0.85-17.69,2.55c-5.33,1.7-9.92,4.18-13.74,7.43c-3.83,3.25-6.82,7.23-8.96,11.92c-2.14,4.69-3.21,9.99-3.21,15.89
		c0,5.37,0.92,10.23,2.76,14.58c1.84,4.35,4.37,8.06,7.6,11.12c3.23,3.07,7.1,5.41,11.61,7.04c4.51,1.63,9.35,2.44,14.53,2.44
		c3.83,0,7.4-0.45,10.7-1.36c3.3-0.91,6.31-2.1,9.01-3.58c2.7-1.47,5.1-3.05,7.21-4.71c1.34-1.06,2.55-2.11,3.68-3.17l0.04,10.6
		h21.08h5.34l-0.05-67.68V768.82z M1183.98,817.04c-1.63,1.36-3.46,2.59-5.51,3.69c-2.04,1.1-4.27,2.01-6.7,2.72
		c-2.42,0.72-4.99,1.08-7.72,1.08c-2.19,0-4.27-0.3-6.24-0.91c-1.97-0.61-3.69-1.51-5.16-2.72c-1.48-1.21-2.65-2.74-3.52-4.6
		c-0.87-1.85-1.31-4.03-1.31-6.53c0-5.37,1.91-9.36,5.73-11.97c3.82-2.61,9.02-3.91,15.61-3.91c3.4,0,6.77,0.25,10.1,0.74
		c3.33,0.49,6.28,1.04,8.85,1.65v16.8C1186.98,814.36,1185.6,815.68,1183.98,817.04z"/>
	<path class="st0" d="M932.33,754.51c-1.36-4.24-3.23-7.89-5.62-10.95c-2.38-3.06-5.13-5.56-8.23-7.49
		c-3.1-1.93-6.53-3.35-10.27-4.26c-3.75-0.91-7.63-1.36-11.63-1.36c-4.24,0-8.23,0.51-11.97,1.53c-3.75,1.02-7.17,2.37-10.27,4.03
		c-3.1,1.67-5.21,2.97-7.55,5.26c-2.84,2.77-4.8,5.74-5.11,7.23l0-15.32h-26.83v109.97h26.9v-75.7c3.71-4.69,7.96-8.27,12.77-10.73
		c4.8-2.46,9.82-3.69,15.04-3.69c3.93,0,7.28,0.76,10.05,2.27c2.76,1.52,4.82,4.01,6.19,7.49c0.61,1.59,1.02,3.44,1.25,5.56
		c0.23,2.12,0.34,4.65,0.34,7.6v67.19h26.9v-71.39c0-3.63-0.13-6.83-0.4-9.59C933.59,759.4,933.08,756.85,932.33,754.51z"/>
	<path class="st0" d="M1343.18,754.51c-1.36-4.24-3.23-7.89-5.62-10.95c-2.38-3.06-5.13-5.56-8.23-7.49
		c-3.1-1.93-6.53-3.35-10.27-4.26c-3.75-0.91-7.63-1.36-11.63-1.36c-4.24,0-8.23,0.51-11.97,1.53c-3.75,1.02-7.17,2.37-10.27,4.03
		c-3.1,1.67-5.21,2.97-7.55,5.26c-2.84,2.77-4.8,5.74-5.11,7.23v-15.32h-26.83v109.97h26.9v-75.7c3.71-4.69,7.96-8.27,12.77-10.73
		c4.8-2.46,9.82-3.69,15.04-3.69c3.93,0,7.28,0.76,10.04,2.27c2.76,1.52,4.82,4.01,6.19,7.49c0.61,1.59,1.02,3.44,1.25,5.56
		c0.23,2.12,0.34,4.65,0.34,7.6v67.19h26.9v-71.39c0-3.63-0.13-6.83-0.4-9.59C1344.44,759.4,1343.93,756.85,1343.18,754.51z"/>
	<circle class="st0" cx="790.55" cy="703.66" r="18.66"/>
	<path class="st0" d="M1065.34,748.51v5.32v12.42c-7.67-0.3-18.9-2.32-33.32-9.13c-15.43-7.28-28.19-5.1-37.05-1.18v-2.12v-5.32
		v-57.22h-27.81v151.85h27.81v-56.35v-9.7v-9.17c22.21,5.29,21.3,10.89,37.58,14.57c13.35,3.02,24.81-1.71,32.78-6.99v1.6v9.7v56.35
		h27.81V691.29h-27.81V748.51z"/>
	<polygon class="st0" points="1484.5,691.29 1449.74,691.29 1404.25,757.32 1404.25,691.29 1376.26,691.29 1376.26,844.14 
		1404.25,844.14 1404.25,778.11 1449.74,844.14 1484.5,844.14 1431.84,767.71 	"/>
	<polygon class="st0" points="727.98,691.29 682.49,757.32 682.49,691.29 654.5,691.29 654.5,844.14 682.49,844.14 682.49,778.11 
		727.98,844.14 762.74,844.14 710.08,767.71 762.74,691.29 	"/>
</g>
<g>
	<path class="st8" d="M681.9,894.04h-13.99l-1.21,7.67h12.37l-1.13,7.13h-12.37l-1.32,8.32h13.99l-1.17,7.4h-23.22l6-37.91h23.22
		L681.9,894.04z"/>
	<path class="st8" d="M689.07,886.65h10.91l6.48,26.25l14.69-26.25H732l-6,37.91h-9.23l3.6-22.73l-12.08,22.73h-7.45l-4.92-22.79
		l-3.61,22.79h-9.23L689.07,886.65z"/>
	<path class="st8" d="M738.48,886.65h9.23l-3.59,22.68c-0.71,4.48,1.09,7.07,5.47,7.07s7.11-2.59,7.82-7.07l3.59-22.68h9.23
		l-3.58,22.63c-1.66,10.48-9.82,15.66-18.57,15.66c-8.8,0-14.84-5.18-13.18-15.66L738.48,886.65z"/>
	<path class="st8" d="M785.94,886.65l-4.88,30.78h12.1l-1.13,7.13h-21.33l6-37.91H785.94z"/>
	<path class="st8" d="M821.12,917.86h-14.15l-3.33,6.7h-9.67l19.72-37.91h10.69l7.71,37.91h-9.77L821.12,917.86z M817.37,896.85
		l-6.84,13.88h9.34L817.37,896.85z"/>
	<path class="st8" d="M840.21,886.65h29.32l-1.17,7.4h-10.04l-4.83,30.51h-9.23l4.83-30.51h-10.04L840.21,886.65z"/>
	<path class="st8" d="M874.18,886.65h9.23l-6,37.91h-9.23L874.18,886.65z"/>
	<path class="st8" d="M901.97,924.93c-10.75,0-18.22-8.05-16.42-19.44c1.8-11.39,11.82-19.39,22.56-19.39
		c10.8,0,18.12,7.99,16.32,19.39C922.63,916.89,912.72,924.93,901.97,924.93z M903.31,916.51c6.05,0,10.68-4.38,11.74-11.02
		c1.07-6.75-2.2-11.02-8.25-11.02c-6.16,0-10.72,4.27-11.79,11.02C893.96,912.13,897.15,916.51,903.31,916.51z"/>
	<path class="st8" d="M966.46,886.65l-6,37.91h-9.23l-11.74-23.38l-3.7,23.38h-9.23l6-37.91h9.23l11.72,23.49l3.72-23.49H966.46z"/>
	<path class="st8" d="M992.26,924.93c-8.15,0-13.88-4.05-12.94-11.72h9.83c-0.19,2.92,1.42,4.32,4.01,4.32
		c2.7,0,4.64-1.35,4.99-3.56c1.11-7.02-18.44-3.24-16.2-16.69c1.14-7.18,7.66-11.18,15.59-11.18c8.26,0,13.17,4.1,12.41,11.34h-9.99
		c0.22-2.43-1.27-3.89-3.75-3.94c-2.21-0.05-4.06,1.08-4.44,3.46c-1.04,6.59,18.17,3.62,16.16,16.31
		C1006.92,919.64,1001.12,924.93,992.26,924.93z"/>
	<path class="st8" d="M1015.76,886.65h29.32l-1.17,7.4h-10.04l-4.83,30.51h-9.23l4.83-30.51h-10.04L1015.76,886.65z"/>
	<path class="st8" d="M1068.38,917.86h-14.15l-3.33,6.7h-9.67l19.72-37.91h10.69l7.71,37.91h-9.77L1068.38,917.86z M1064.64,896.85
		l-6.84,13.88h9.34L1064.64,896.85z"/>
	<path class="st8" d="M1087.48,886.65h29.32l-1.17,7.4h-10.04l-4.83,30.51h-9.23l4.83-30.51h-10.04L1087.48,886.65z"/>
	<path class="st8" d="M1121.44,886.65h9.23l-6,37.91h-9.23L1121.44,886.65z"/>
	<path class="st8" d="M1149.24,924.93c-10.75,0-18.22-8.05-16.42-19.44c1.8-11.39,11.82-19.39,22.56-19.39
		c10.8,0,18.12,7.99,16.32,19.39C1169.9,916.89,1159.98,924.93,1149.24,924.93z M1150.57,916.51c6.05,0,10.68-4.38,11.73-11.02
		c1.07-6.75-2.2-11.02-8.25-11.02c-6.16,0-10.72,4.27-11.79,11.02C1141.22,912.13,1144.41,916.51,1150.57,916.51z"/>
	<path class="st8" d="M1213.73,886.65l-6,37.91h-9.23l-11.74-23.38l-3.7,23.38h-9.23l6-37.91h9.23l11.72,23.49l3.72-23.49H1213.73z"
		/>
	<path class="st8" d="M1242.98,910.95h-5.72l-2.16,13.61h-9.23l6-37.91h14.96c9.29,0,13.1,5.24,12,12.21
		C1257.84,905.12,1252.65,910.95,1242.98,910.95z M1243.44,903.6c3.67,0,5.53-1.84,5.99-4.75c0.46-2.92-0.81-4.75-4.49-4.75h-5.02
		l-1.51,9.5H1243.44z"/>
	<path class="st8" d="M1277.43,924.93c-10.75,0-18.22-8.05-16.42-19.44c1.8-11.39,11.82-19.39,22.56-19.39
		c10.8,0,18.12,7.99,16.32,19.39C1298.09,916.89,1288.18,924.93,1277.43,924.93z M1278.76,916.51c6.05,0,10.68-4.38,11.73-11.02
		c1.07-6.75-2.2-11.02-8.25-11.02c-6.16,0-10.72,4.27-11.79,11.02C1269.41,912.13,1272.61,916.51,1278.76,916.51z"/>
	<path class="st8" d="M1306.01,886.65h9.88l1.08,27.6l11.12-27.6h10.15l2.11,27.6l9.88-27.6h9.94l-15.89,37.91h-11.18l-2.1-24.95
		l-10.22,24.95h-11.18L1306.01,886.65z"/>
	<path class="st8" d="M1386.87,894.04h-13.99l-1.21,7.67h12.37l-1.13,7.13h-12.37l-1.32,8.32h13.99l-1.17,7.4h-23.22l6-37.91h23.22
		L1386.87,894.04z"/>
	<path class="st8" d="M1409.53,886.65c9.29,0,13.08,5.35,12.04,11.93c-0.75,4.75-4.05,9.23-10.16,10.96l6.37,15.01h-10.42
		l-5.62-14.31h-2.21l-2.27,14.31h-9.23l6-37.91H1409.53z M1407.77,894.32h-5.72l-1.49,9.4h5.72c3.46,0,5.36-1.78,5.83-4.75
		C1412.56,896.15,1411.23,894.32,1407.77,894.32z"/>
	<path class="st8" d="M1451.29,894.04h-13.99l-1.21,7.67h12.37l-1.13,7.13h-12.37l-1.32,8.32h13.99l-1.17,7.4h-23.22l6-37.91h23.22
		L1451.29,894.04z"/>
	<path class="st8" d="M1489.52,905.6c-1.78,11.23-10.78,18.95-22.88,18.95h-14.2l6-37.91h14.2
		C1484.75,886.65,1491.31,894.32,1489.52,905.6z M1467.32,916.56c6.97,0,11.7-4,12.81-10.96c1.1-6.97-2.35-11.07-9.32-11.07h-4.37
		l-3.49,22.03H1467.32z"/>
</g>
</svg>
